<?xml version="1.0" encoding="UTF-8" standalone="no"?>

<svg
   version="1.1"
   id="svg1"
   xmlns="http://www.w3.org/2000/svg"
   xmlns:svg="http://www.w3.org/2000/svg">
  <defs
     id="defs1" />
  <g
     id="layer1">
    <path
       style="display:inline;fill:#382008;stroke-width:0.292436"
       d="m 97.610599,133.97998 c -0.0078,-0.0832 -2.03849,-0.4355 -2.513769,-1.66829 -2.162789,-5.60991 -3.291001,-13.06847 -3.024008,-18.77588 0.189971,-4.06091 1.316591,-8.85688 3.304321,-13.23745 5.852677,-12.898153 18.851687,-22.594632 31.435537,-26.432688 2.94269,-0.897517 7.49225,-0.384223 9.25338,-0.129085 1.56904,0.227311 1.62448,0.374951 1.62324,4.322572 -8e-4,2.52708 -0.10751,3.133963 -0.92619,5.267129 -1.28867,3.357777 -2.17976,8.173564 -5.47279,11.78724 -2.64419,2.901654 -4.74098,4.718029 -9.93579,9.205612 -5.94081,5.13202 -8.6237,6.55041 -11.45027,9.45134 -6.02741,6.18595 -8.66143,11.24496 -10.518426,18.34691 -0.367514,1.40554 -1.582367,3.93481 -1.775235,1.86259 z"
       id="path98" />
    <path
       style="display:inline;fill:#382008;stroke-width:0.326758"
       d="m 90.072036,137.00735 c -7.638465,-2.1731 -12.705212,-5.46886 -16.478546,-10.71879 -6.07804,-8.45648 -8.834667,-18.17193 -8.410569,-29.642202 0.240246,-6.497687 1.184248,-11.391741 3.293112,-17.072668 0.472845,-1.273767 0.651193,-1.440944 1.537211,-1.440944 0.887505,0 1.080778,0.182419 1.687367,1.592625 1.225179,2.848311 5.563076,6.89044 7.02697,16.100562 0.790927,4.976127 2.117617,10.573067 2.506076,12.437637 2.609405,12.52482 3.422642,21.65211 10.13769,27.58283 2.196306,1.93976 2.01323,2.10336 -1.299311,1.16095 z"
       id="path93" />
    <path
       style="display:inline;fill:#382008;stroke-width:0.344601"
       d="m 92.220717,79.203316 c -2.147159,-1.380577 -5.212828,-3.109449 -6.812605,-3.841948 -1.599774,-0.732494 -2.993078,-1.520733 -3.096228,-1.751643 -0.279022,-0.624625 1.55933,-6.139648 3.031384,-9.094062 3.495664,-7.015832 6.175348,-15.980786 12.255005,-14.485617 l 4.648737,1.143262 0.3759,1.162574 c 0.54862,1.69672 0.45345,5.642144 -0.19369,8.029479 -0.30951,1.141823 -0.55445,6.253779 -1.87065,9.591416 -2.337066,5.926322 -3.131062,12.462171 -1.439049,13.382929 2.446279,1.331209 -0.472167,0.04116 -0.597177,0.02711 -0.125016,-0.01405 -4.154472,-2.782924 -6.301627,-4.1635 z"
       id="path175" />
    <path
       style="display:inline;fill:#2a1806;stroke-width:0.264583"
       d="m 133.10467,78.069899 c -0.67022,-0.03403 -2.29153,-0.03405 -3.6148,0.126844 -10.82882,1.316657 -22.89461,9.357574 -30.090493,20.052982 -2.967993,4.411405 -5.455185,10.085855 -5.562243,12.690095 -0.03249,0.79022 -0.05945,0.83395 -0.149336,0.24222 -0.148371,-0.97672 0.577344,-4.73213 1.403659,-7.26361 2.232237,-6.838655 5.940913,-12.560828 11.811213,-18.223726 1.80126,-1.737622 4.39958,-3.96149 5.77404,-4.94193 5.00166,-3.567805 12.12958,-6.629355 17.12349,-7.354797 2.17085,-0.315352 5.1678,-0.262687 5.52762,0.09714 0.10295,0.10295 1.71928,0.619003 1.7467,2.254181 0.0576,3.437988 0.75026,2.560228 -3.96985,2.320605 z"
       id="path266" />
    <path
       style="display:inline;fill:#2a1806;stroke-width:0.264583"
       d="M 71.364246,124.8521 C 68.33405,120.28452 65.945852,114.0604 64.941433,108.113 64.363231,104.68931 64.166735,97.777812 64.55267,94.438659 c 0.546923,-4.732017 3.467208,-14.650781 4.343648,-16.00641 0.371441,-0.574524 2.019009,0.865163 3.226435,1.956001 3.249899,2.891872 8.905918,1.325819 3.554955,3.351204 -0.839658,0 -4.444621,2.360491 -5.539441,6.619754 -1.861968,7.243754 -2.115066,16.288322 -0.653769,23.362912 z"
       id="path238" />
    <path
       style="display:inline;fill:#2a1806;stroke-width:0.264583"
       d="m 85.720016,75.488193 c -3.077816,-1.544521 -2.266225,-3.656076 -1.268209,-7.769458 2.199251,-9.064344 6.293075,-15.116897 11.5282,-17.043982 2.905607,-1.069575 2.811852,-1.090191 3.681339,0.809461 0.423534,0.925341 0.838964,1.980094 0.923174,2.343896 0.0842,0.363802 0.0894,0.526479 0.0115,0.361503 -0.20466,-0.433406 -2.00732,0.02281 -4.036142,1.021451 -3.145936,1.548524 -6.169086,5.17045 -8.119827,9.72807 -1.042257,2.435077 -3.260455,10.270781 -3.063767,10.78334 z"
       id="path303" />
    <path
       id="path4-8"
       style="display:inline;fill:#9c5916;fill-opacity:1;stroke-width:0.275651"
       d="m 140.40959,76.167431 c 0.6737,-0.641315 -1.95603,-1.090435 -2.00031,-0.954148 -0.0655,0.201708 -0.17544,3.065753 -0.24391,4.957522 -0.0832,2.299718 -0.56488,4.141038 -0.93791,5.55625 -0.85223,3.233269 -2.4796,6.383887 -5.03563,9.574384 -1.94373,2.426242 -6.24106,6.702571 -9.09584,8.913151 -7.57057,5.86224 -14.31696,12.21799 -16.93204,15.7732 -3.35768,4.56478 -5.9697,11.8916 -5.82499,16.18063 l 0.0678,2.01034 1.56993,-0.50035 c 0.76398,-0.0886 1.89782,0.81395 3.06198,0.59108 7.636,-1.46183 16.61839,-4.64417 22.3836,-8.97104 4.51056,-3.38522 9.81006,-9.85302 12.39196,-14.98818 2.1223,-4.22103 4.07405,-9.27871 4.7258,-15.003786 0.47567,-4.178191 -0.31711,-15.619518 -1.02161,-18.257646 -0.73433,-2.749773 -3.5838,-4.429295 -3.10886,-4.881407 z" />
    <path
       id="path27"
       style="display:inline;fill:#9c5916;fill-opacity:1;stroke-width:0.275651"
       d="m 76.648674,74.482263 c -1.677385,0 -3.841044,0.64843 -4.73873,1.420585 -0.812456,0.698849 -1.147302,1.520952 -0.06201,1.738008 1.033923,0.206785 3.152761,2.728283 3.701621,4.520435 4.545139,14.840887 4.012049,5.362816 5.658533,17.393343 2.127358,15.544186 3.462657,21.640796 7.325135,27.986666 1.39665,2.29463 4.667702,6.12231 5.025276,5.90132 0.11717,-0.0724 -0.354889,-2.1475 -0.85589,-3.47873 -4.851141,-12.89015 -2.738866,-26.51466 5.27151,-37.74227 2.839711,-3.98023 2.457421,-3.609726 -0.830569,-6.756048 C 90.589289,79.193706 81.797867,74.482263 76.648674,74.482263 Z" />
    <path
       id="path22"
       style="display:inline;fill:#9c5916;fill-opacity:1;stroke-width:0.275651"
       d="m 100.18626,48.497285 c -1.106537,0.0722 -0.211073,0.0069 1.97507,6.442501 2.69086,7.921461 1.29766,8.09905 -1.24075,15.627469 -2.196648,6.514799 -1.071541,5.407874 -1.068155,8.035168 0.003,2.336745 -0.03392,3.905621 1.084685,5.633765 l 1.83865,2.840654 3.67575,-3.009635 c 4.86117,-3.980545 9.04047,-7.342595 14.32212,-9.375137 2.72757,-1.049658 8.1553,-0.577223 5.70559,-2.870626 -0.96148,-0.900137 -4.52781,-6.706143 -6.34328,-9.482627 -2.28989,-3.502036 -7.31602,-8.768575 -10.28102,-10.503233 -2.09788,-1.227342 -8.47112,-3.416438 -9.66866,-3.338299 z" />
    <path
       style="fill:#8c4f13;fill-opacity:1;stroke-width:0.273034"
       d="m 101.48387,137.94789 c 2.65426,1.88593 7.72519,-2.07716 10.58346,-3.19077 33.20886,-13.6111 28.10838,-48.838965 27.46655,-49.50503 -0.0766,-0.0795 -1.49192,-4.859893 -1.26612,-5.870289 0.22579,-1.010396 -1.35706,-3.937325 0.42911,-4.212613 l 1.91769,-0.295559 1.26933,2.617256 c 1.52772,3.150007 1.81143,5.182931 1.80431,12.230198 -0.0116,11.514877 -2.26771,20.300167 -7.1869,27.986287 -3.06324,4.78623 -6.29153,8.12363 -11.04813,11.42152 -2.95142,2.0463 -8.7919,5.03675 -11.91175,6.09906 -4.24783,0.93059 -8.29925,5.24763 -12.05755,2.71994 z"
       id="path339" />
    <path
       style="fill:#8c4f13;fill-opacity:1;stroke-width:0.264583"
       d="M 88.74627,128.80433 C 86.987738,126.69124 85.197813,123.56589 83.930377,120.3954 81.751629,114.94524 80.700029,110.25149 79.277063,99.625606 77.635458,87.367035 76.661405,82.990324 74.881582,79.875368 73.836428,78.046193 69.709423,79.344813 69.499378,77.517777 l -0.283112,-2.46262 1.318654,-0.586822 c 3.014588,-1.34154 6.919145,-1.530424 11.899712,0.880986 4.574474,2.214793 12.021465,6.417588 15.306508,10.001324 0.65595,0.715592 3.65043,4.325927 3.15847,3.893733 -0.43656,-0.383527 -6.713292,-4.298543 -8.532303,-5.494658 -6.813404,-4.480248 -10.570331,-5.74602 -11.593441,-3.742002 -0.972754,1.905386 1.939044,21.080482 3.65242,30.636672 0.214749,1.19774 2.721596,12.68876 3.449478,12.65748 0.155528,1.44744 3.119644,6.91211 3.328279,8.9576 -0.0452,0.0467 -1.748057,-2.60234 -2.457762,-3.45514 z"
       id="path1588" />
    <path
       style="fill:#8c4f13;fill-opacity:1;stroke-width:0.264583"
       d="m 100.64491,83.157564 c -0.60126,-1.162693 -0.37578,-4.73306 -0.375,-6.383274 0.001,-2.133512 0.52978,-4.288303 2.46726,-10.054166 0.95352,-2.837657 0.96989,-5.714069 1.14167,-6.723616 0.41828,-2.458281 -2.28402,-8.263567 -3.08882,-10.659985 -0.35886,-1.068578 2.72296,0.287901 2.75886,0.251145 0.16463,-0.168535 3.33318,1.092745 4.89724,1.949399 4.98516,2.730437 10.24497,7.383518 13.50808,13.97875 1.495,3.021608 2.10608,4.94569 0.93555,2.897796 -1.04025,-1.819971 -5.55982,-6.336342 -8.14701,-8.904568 -3.40271,-3.377771 -5.81495,-4.592513 -6.92181,-3.485647 -0.22868,0.228674 -0.41579,0.437033 -0.41581,0.463021 -2e-5,0.02598 -0.23438,1.892715 -0.52081,4.148288 -0.55086,4.337926 -1.62373,8.564218 -2.97521,11.719981 -0.44895,1.048334 -1.04319,2.620436 -1.32054,3.493561 -0.53156,1.673455 -0.64889,6.624907 -0.58689,7.011458 0.89751,10.784012 1.87166,6.504138 -1.35676,0.297857 z"
       id="path1611" />
    <path
       style="display:inline;fill:#1a0e03;stroke-width:0.264583"
       d="m 176.33094,166.68126 c -1.82864,-0.51248 -3.95255,-2.25166 -3.95255,-3.23657 0,-0.18621 0.5584,-0.65068 1.24092,-1.03215 1.07413,-0.60034 1.27151,-0.63895 1.46836,-0.2872 0.39613,0.70785 1.71357,1.20012 3.2118,1.20012 1.61494,0 2.281,-0.42845 2.281,-1.46731 0,-0.73017 -0.57637,-1.0818 -3.175,-1.93705 -3.32695,-1.09493 -4.49516,-2.30088 -4.49694,-4.64218 -0.003,-4.66889 6.1804,-6.43688 9.45788,-2.70401 0.47294,0.53866 0.85976,1.06454 0.8596,1.16861 -1.3e-4,0.10408 -0.58758,0.5191 -1.30543,0.92228 l -1.30518,0.73305 -0.66691,-0.6669 c -0.5293,-0.5293 -0.93142,-0.6669 -1.94892,-0.6669 -1.40132,0 -1.91702,0.32582 -1.91702,1.21114 0,0.78795 0.41217,1.07185 2.67216,1.84052 3.58982,1.22097 4.99793,2.61934 4.99975,4.96512 0,0.69845 -0.16629,1.59142 -0.37073,1.98437 -1.15578,2.22138 -4.29898,3.38682 -7.05279,2.61506 z M 25.534633,158.69525 v -8.06979 h 3.819234 c 2.100577,0 4.154405,0.127 4.564062,0.28221 2.319689,0.87891 3.58281,3.88131 2.611191,6.20672 -0.357819,0.85638 -0.340891,0.98861 0.261398,2.04202 1.184249,2.07126 0.774033,4.93755 -0.909375,6.35405 -1.226627,1.03214 -2.377641,1.25146 -6.576198,1.25311 l -3.770312,0.002 z m 8.721939,4.11844 c 0.390586,-0.72982 0.338463,-2.01568 -0.09633,-2.37653 -0.238945,-0.19831 -1.247513,-0.28016 -2.844271,-0.23083 l -2.474042,0.0764 -0.08284,1.15475 c -0.13399,1.86781 -0.105071,1.88795 2.711058,1.88795 2.213282,0 2.545157,-0.061 2.786428,-0.51177 z m -0.671047,-6.254 c 0.516075,-0.51608 0.541885,-1.79602 0.04454,-2.20878 -0.23544,-0.1954 -1.179063,-0.27983 -2.579688,-0.23083 l -2.208456,0.0773 -0.08378,1.02001 c -0.138182,1.68242 -0.03892,1.75811 2.305531,1.75811 1.561833,0 2.213515,-0.10744 2.521847,-0.41577 z m 6.236608,2.13556 v -8.06979 h 1.5875 1.587499 v 8.06979 8.06979 h -1.587499 -1.5875 z m 7.143749,-0.0126 v -8.08241 l 1.616927,0.0788 1.616927,0.0788 2.458681,3.83645 c 2.747115,4.28653 2.966159,4.57399 3.319158,4.35583 0.137866,-0.0852 0.248724,-1.97462 0.248724,-4.23915 v -4.08543 h 1.5875 1.5875 v 8.06979 8.06979 l -1.256771,-0.002 -1.256771,-0.002 -2.923436,-4.5606 c -1.607892,-2.50833 -3.125939,-4.5996 -3.373438,-4.64726 -0.409829,-0.0789 -0.450001,0.32841 -0.450001,4.56294 v 4.64961 h -1.5875 -1.5875 z m 14.555637,7.88398 c 0.0019,-0.10914 1.296167,-3.71078 2.876026,-8.00364 l 2.87247,-7.80521 h 1.785795 1.785794 l 2.878807,7.79391 c 1.583341,4.28665 2.878804,7.88829 2.878804,8.00365 0,0.11535 -0.749249,0.20973 -1.665001,0.20973 h -1.664999 l -0.494642,-1.45521 -0.494641,-1.45521 h -3.221341 -3.221345 l -0.494641,1.45521 -0.494639,1.45521 h -1.665001 c -0.91575,0 -1.663401,-0.0893 -1.661446,-0.19844 z m 9.252471,-6.48229 c -0.01053,-0.79273 -1.294985,-3.77767 -1.656874,-3.85038 -0.276034,-0.0555 -0.61052,0.47479 -1.088408,1.72541 -0.37945,0.99301 -0.689909,1.95177 -0.689909,2.13058 0,0.22376 0.536181,0.32512 1.719792,0.32512 1.201785,0 1.718468,-0.0996 1.715399,-0.33073 z m 7.941892,-1.40812 v -8.08886 l 3.902604,0.0852 c 4.513916,0.0985 5.477039,0.42312 6.796037,2.29022 1.494393,2.11537 1.067446,5.87136 -0.807008,7.09956 -0.34717,0.22747 -0.631216,0.5233 -0.631216,0.65739 0,0.1341 0.714375,1.50464 1.5875,3.04565 0.873125,1.54102 1.5875,2.84636 1.5875,2.90076 0,0.0544 -0.818465,0.0989 -1.818812,0.0989 h -1.81881 l -1.444138,-2.57969 -1.444138,-2.57969 -1.367261,-0.08 -1.367258,-0.08 v 2.65966 2.65967 h -1.5875 -1.5875 z m 8.081817,-1.29183 c 0.793668,-0.79367 0.8285,-1.69739 0.101063,-2.62218 -0.514911,-0.6546 -0.684424,-0.69714 -2.778125,-0.69714 h -2.229755 v 1.98438 1.98437 h 2.128692 c 1.907318,0 2.196232,-0.0675 2.778125,-0.64943 z m 9.645266,6.5819 v -2.79878 l -2.778125,-5.1119 c -1.527969,-2.81155 -2.778125,-5.18351 -2.778125,-5.27102 0,-0.0875 0.806019,-0.1591 1.791155,-0.1591 h 1.791158 l 1.66388,3.04271 c 0.915133,1.67349 1.827525,3.04271 2.027536,3.04271 0.200015,0 1.094023,-1.36922 1.986686,-3.04271 l 1.62303,-3.04271 h 1.86262 c 1.62923,0 1.84144,0.0552 1.69353,0.44066 -0.093,0.24237 -1.3559,2.6226 -2.80643,5.2894 l -2.637332,4.84874 v 2.78039 2.78039 h -1.719791 -1.719792 z m 17.462495,-5.24825 v -8.09256 l 3.9026,0.004 c 3.55417,0.004 3.9964,0.0575 4.95313,0.59934 2.08463,1.1807 2.92645,3.44469 2.11741,5.69456 l -0.4526,1.25862 0.69287,1.02099 c 1.40713,2.07353 0.70651,5.25674 -1.475,6.70153 -1.06863,0.70775 -1.21867,0.73037 -5.41872,0.81681 l -4.31969,0.0889 z m 8.72183,3.74755 c 0.36536,-0.65427 0.36536,-0.80094 0,-1.45521 -0.39447,-0.70639 -0.48123,-0.72981 -2.97657,-0.80333 l -2.57026,-0.0757 v 1.60667 1.60666 l 2.57026,-0.0757 c 2.49534,-0.0735 2.5821,-0.0969 2.97657,-0.80333 z m -0.92581,-5.84754 c 0.51589,-0.37723 0.64524,-1.89046 0.19971,-2.33602 -0.13184,-0.13184 -1.24068,-0.20482 -2.46406,-0.16218 l -2.22438,0.0775 -0.0838,1.02001 c -0.13676,1.66502 -0.0233,1.75811 2.14156,1.75811 1.21349,0 2.12551,-0.1341 2.43094,-0.35744 z m 6.49148,2.07723 v -8.06979 h 4.7625 4.76252 v 1.71139 1.7114 l -3.10888,0.0745 -3.10885,0.0745 v 1.19062 1.19063 l 2.77812,0.13229 2.77813,0.13229 0.0786,1.64457 0.0785,1.64457 -2.85665,0.0752 -2.85668,0.0752 v 1.45521 1.4552 l 3.10885,0.0746 3.10888,0.0745 v 1.71139 1.7114 h -4.76252 -4.7625 z m 11.65669,7.73906 c 0.008,-0.1819 1.28884,-3.78354 2.84578,-8.00364 l 2.83078,-7.67292 1.76109,-0.0777 1.76109,-0.0777 0.57531,1.53291 c 1.54355,4.11275 5.2922,14.38239 5.2922,14.49829 0,0.0723 -0.75457,0.1315 -1.67683,0.1315 h -1.67682 l -0.49464,-1.45521 -0.49464,-1.45521 h -3.23897 -3.23898 l -0.45873,1.45521 -0.45871,1.45521 h -1.67148 c -1.16877,0 -1.66695,-0.0995 -1.65645,-0.33073 z m 9.13405,-6.69151 c -0.46953,-1.87077 -1.28159,-3.58621 -1.6614,-3.50963 -0.37774,0.0762 -1.66682,3.02831 -1.66682,3.81721 0,0.27304 0.43929,0.36466 1.74847,0.36466 1.74038,0 1.74768,-0.003 1.57975,-0.67224 z m 8.04886,-1.04755 v -8.06979 h 1.59295 c 1.83441,0 1.50292,-0.34362 5.10521,5.29167 1.06976,1.67348 2.11368,3.0427 2.31979,3.0427 0.30437,0 0.38843,-0.78489 0.44767,-4.18019 l 0.0729,-4.18018 1.51458,0.0791 1.51458,0.0791 0.07,8.00364 0.07,8.00365 h -1.30609 -1.30609 l -2.98064,-4.64007 c -2.03375,-3.166 -3.11202,-4.61485 -3.39414,-4.56068 -0.35248,0.0677 -0.42418,0.75249 -0.48591,4.64007 l -0.0724,4.56068 h -1.58126 -1.58123 z M 92.90673,140.29742 c -5.564881,-0.87453 -11.696674,-3.54079 -15.840467,-6.88784 -8.521186,-6.8828 -13.69468,-17.81988 -14.75968,-31.20286 -0.566455,-7.11817 0.627044,-16.274966 2.904929,-22.28732 0.750154,-1.979988 2.415045,-4.452311 3.791849,-5.630802 2.51723,-2.154658 6.132293,-3.128036 9.615874,-2.589141 0.99904,0.154549 1.911564,0.194265 2.02783,0.08826 0.116266,-0.106008 0.44436,-1.33314 0.729099,-2.72696 1.684872,-8.247591 5.185765,-14.784059 9.833877,-18.360699 3.215148,-2.474 6.430791,-3.419478 10.856389,-3.192045 9.32009,0.478962 18.77172,8.679082 23.92358,20.755769 0.66971,1.569916 1.2473,2.890546 1.28354,2.934734 0.0362,0.04418 1.32914,-0.06651 2.87317,-0.245988 6.62958,-0.770631 11.58023,1.524688 14.01024,6.495706 1.52675,3.123224 2.06888,6.069737 2.21866,12.058486 0.15719,6.286058 -0.27088,10.74112 -1.52593,15.88078 -4.41364,18.07452 -18.19738,30.39467 -38.48485,34.39846 -3.27971,0.64725 -10.780154,0.9323 -13.45811,0.51146 z m 12.66436,-3.61039 c 7.636,-1.46184 15.59533,-4.8999 21.36054,-9.22677 4.51057,-3.38523 9.04267,-8.82978 11.62458,-13.96495 2.1223,-4.22103 3.81839,-10.30216 4.47013,-16.027241 0.47567,-4.178197 0.19458,-12.550037 -0.50993,-15.188168 -0.83923,-3.142599 -2.96484,-6.797926 -3.31904,-5.707634 -0.0655,0.201708 -0.17518,1.914557 -0.24365,3.806328 -0.0832,2.299721 -0.30938,4.141036 -0.68242,5.55625 -0.85222,3.233272 -2.86329,7.023647 -5.41932,10.214147 -1.94374,2.426245 -6.36897,6.702328 -9.22375,8.912918 -7.57057,5.86225 -14.44469,12.21793 -17.05977,15.77314 -3.35768,4.56479 -5.89216,11.24978 -5.89216,15.54126 v 1.03822 l 1.38906,-0.16115 c 0.76399,-0.0886 2.34156,-0.34349 3.50573,-0.56635 z m -14.155208,-0.29286 c 0,-0.11461 -0.603404,-0.79922 -1.340895,-1.52136 C 85.495401,130.3886 81.93203,123.03925 79.945324,113.98068 79.291113,110.99774 78.539069,106.26314 77.528808,98.767136 76.097856,88.149653 75.10769,84.661757 72.819899,82.179793 c -0.743826,-0.806955 -1.456883,-1.26202 -2.485623,-1.586304 -1.715143,-0.540649 -1.645144,-0.603988 -2.587961,2.341759 -1.615903,5.048739 -2.385327,11.061692 -2.175465,17.000923 0.176313,4.989709 0.620393,7.878179 1.888636,12.284399 1.803863,6.26711 4.819123,11.55533 9.124709,16.00309 3.594703,3.71339 7.56897,6.21597 12.312708,7.75326 2.01907,0.65431 2.518979,0.73711 2.518979,0.41725 z m 1.149255,-6.17711 C 87.713991,117.3269 89.554969,103.27277 97.565354,92.045153 100.40507,88.064918 100.45255,88.819761 97.164561,85.673436 90.610297,79.401565 81.8185,74.690053 76.669301,74.690053 c -1.677387,0 -3.840673,0.648679 -4.738359,1.420834 -0.812459,0.698849 -0.695492,1.091517 0.3898,1.308573 1.033922,0.206786 2.886675,1.664005 4.016808,3.159284 2.144417,2.837278 3.244911,7.153376 4.891397,19.183916 2.127364,15.5442 3.733729,21.41471 7.596212,27.76058 1.39665,2.29463 4.080282,5.4669 4.437856,5.24591 0.117171,-0.0724 -0.196874,-1.22085 -0.697878,-2.55209 z m 5.196691,1.08648 c 0.0075,-0.74525 1.362999,-4.60109 2.396502,-6.81693 2.61233,-5.60083 7.64319,-11.12343 17.19176,-18.87215 7.62222,-6.185466 9.78562,-8.132392 12.021,-10.818182 4.62569,-5.557716 6.42596,-10.548766 6.17683,-17.124442 -0.0619,-1.634236 -0.1968,-3.05557 -0.29974,-3.158519 -0.35984,-0.359823 -3.35677,-0.412488 -5.52763,-0.09714 -4.9939,0.725443 -12.12183,3.786992 -17.12349,7.354798 -3.26493,2.328965 -8.5754,7.471053 -10.87391,10.529144 -5.733525,7.628252 -8.276625,14.760191 -8.296906,23.268051 -0.01066,4.46963 0.304991,6.64431 1.57453,10.84792 1.168969,3.8706 2.193804,6.18181 2.515603,5.6732 0.132771,-0.20984 0.243224,-0.56343 0.245451,-0.78575 z m 7.251932,-47.82042 c 4.0182,-3.849626 10.58064,-8.137577 15.25141,-9.965412 1.08606,-0.425016 2.37042,-0.92802 2.85408,-1.117782 1.06873,-0.419293 1.07294,-0.398235 -0.91051,-4.569365 -3.21879,-6.768991 -7.86098,-12.064296 -13.10171,-14.94496 -1.54071,-0.846879 -6.49712,-3.031194 -7.07885,-3.031194 -0.38065,0 1.0292,3.857826 1.73461,5.813388 1.49032,4.131514 1.90347,5.702488 -0.72901,13.235162 -2.74787,7.862803 -2.9813,10.623113 -1.28238,15.163877 0.30273,0.809124 0.67802,1.471136 0.83397,1.471136 0.15596,0 1.24873,-0.924685 2.42839,-2.05485 z m -7.378265,-9.433988 c 0.254106,-1.007351 1.093327,-3.638936 1.864937,-5.847969 2.758838,-7.898252 2.879818,-10.880193 0.636928,-15.698758 -0.884022,-1.899206 -0.789976,-1.8786 -3.694395,-0.809461 -5.235125,1.927084 -9.328949,7.97964 -11.5282,17.043984 -0.998016,4.113382 -1.086136,3.873656 1.99168,5.418177 2.634404,1.322004 6.881546,4.057084 8.875062,5.715373 l 1.058333,0.880367 0.166823,-2.435085 c 0.09175,-1.339294 0.374726,-3.259277 0.628832,-4.266628 z"
       id="path1" />
  </g>
</svg>
