<?xml version="1.0" encoding="UTF-8" standalone="no"?>
<svg
   width="158.22"
   height="119.44113"
   version="1.1"
   id="svg1"
   sodipodi:docname="logotype.svg"
   inkscape:version="1.3.2 (091e20e, 2023-11-25, custom)"
   xmlns:inkscape="http://www.inkscape.org/namespaces/inkscape"
   xmlns:sodipodi="http://sodipodi.sourceforge.net/DTD/sodipodi-0.dtd"
   xmlns="http://www.w3.org/2000/svg"
   xmlns:svg="http://www.w3.org/2000/svg">
  <defs
     id="defs1" />
  <sodipodi:namedview
     id="namedview1"
     pagecolor="#ffffff"
     bordercolor="#000000"
     borderopacity="0.25"
     inkscape:showpageshadow="2"
     inkscape:pageopacity="0.0"
     inkscape:pagecheckerboard="0"
     inkscape:deskcolor="#d1d1d1"
     inkscape:zoom="4.22"
     inkscape:cx="138.15166"
     inkscape:cy="79.265403"
     inkscape:window-width="1920"
     inkscape:window-height="1017"
     inkscape:window-x="-8"
     inkscape:window-y="-8"
     inkscape:window-maximized="1"
     inkscape:current-layer="svg1" />
  <g
     class="layer"
     id="g1"
     transform="translate(-1.53,-1.4766854)">
    <title
       id="title1">Layer 1</title>
    <g
       id="layer1">
      <path
         d="M 73.61,87.98 C 73.6,87.9 71.57,87.54 71.1,86.31 68.93,80.7 67.81,73.24 68.07,67.54 c 0.19,-4.07 1.32,-8.86 3.31,-13.24 5.85,-12.9 18.85,-22.6 31.43,-26.43 2.95,-0.9 7.49,-0.39 9.26,-0.13 1.57,0.22 1.62,0.37 1.62,4.32 0,2.53 -0.11,3.13 -0.93,5.27 -1.29,3.35 -2.18,8.17 -5.47,11.78 -2.64,2.91 -4.74,4.72 -9.94,9.21 -5.94,5.13 -8.62,6.55 -11.45,9.45 -6.02,6.19 -8.66,11.25 -10.51,18.35 -0.37,1.4 -1.59,3.93 -1.78,1.86 z"
         display="inline"
         fill="#382008"
         id="path98"
         stroke-width="0.29" />
      <path
         d="M 66.07,91.01 C 58.43,88.83 53.37,85.54 49.59,80.29 43.52,71.83 40.76,62.12 41.18,50.65 c 0.24,-6.5 1.19,-11.4 3.3,-17.08 0.47,-1.27 0.65,-1.44 1.53,-1.44 0.89,0 1.08,0.19 1.69,1.6 1.23,2.84 5.56,6.89 7.03,16.1 0.79,4.97 2.12,10.57 2.5,12.43 2.61,12.53 3.43,21.66 10.14,27.59 2.2,1.94 2.01,2.1 -1.3,1.16 z"
         display="inline"
         fill="#382008"
         id="path93"
         stroke-width="0.33" />
      <path
         d="m 68.22,33.2 c -2.15,-1.38 -5.21,-3.11 -6.81,-3.84 -1.6,-0.73 -2.99,-1.52 -3.1,-1.75 -0.28,-0.62 1.56,-6.14 3.03,-9.09 C 64.84,11.5 67.52,2.53 73.6,4.03 l 4.65,1.14 0.37,1.17 c 0.55,1.69 0.46,5.64 -0.19,8.03 -0.31,1.14 -0.56,6.25 -1.87,9.59 -2.34,5.92 -3.13,12.46 -1.44,13.38 2.45,1.33 -0.47,0.04 -0.6,0.03 -0.12,-0.02 -4.15,-2.79 -6.3,-4.17 z"
         display="inline"
         fill="#382008"
         id="path175"
         stroke-width="0.34" />
      <path
         d="m 109.1,32.07 c -0.67,-0.03 -2.29,-0.03 -3.61,0.13 -10.83,1.31 -22.89,9.35 -30.09,20.05 -2.97,4.41 -5.46,10.09 -5.56,12.69 -0.04,0.79 -0.06,0.83 -0.15,0.24 -0.15,-0.97 0.58,-4.73 1.4,-7.26 2.23,-6.84 5.94,-12.56 11.81,-18.23 1.8,-1.73 4.4,-3.96 5.78,-4.94 5,-3.57 12.13,-6.63 17.12,-7.35 2.17,-0.32 5.17,-0.26 5.53,0.1 0.1,0.1 1.72,0.61 1.74,2.25 0.06,3.44 0.75,2.56 -3.97,2.32 z"
         display="inline"
         fill="#2a1806"
         id="path266"
         stroke-width="0.26" />
      <path
         d="M 47.36,78.85 C 44.33,74.28 41.95,68.06 40.94,62.11 40.36,58.69 40.17,51.78 40.55,48.44 41.1,43.71 44.02,33.79 44.9,32.43 c 0.37,-0.57 2.02,0.87 3.22,1.96 3.25,2.89 8.91,1.32 3.56,3.35 -0.84,0 -4.45,2.36 -5.54,6.62 -1.86,7.24 -2.12,16.29 -0.66,23.36 z"
         display="inline"
         fill="#2a1806"
         id="path238"
         stroke-width="0.26" />
      <path
         d="m 61.72,29.49 c -3.08,-1.55 -2.27,-3.66 -1.27,-7.77 2.2,-9.07 6.29,-15.12 11.53,-17.05 2.91,-1.06 2.81,-1.09 3.68,0.81 0.42,0.93 0.84,1.98 0.92,2.35 0.09,0.36 0.09,0.52 0.02,0.36 -0.21,-0.43 -2.01,0.02 -4.04,1.02 -3.15,1.55 -6.17,5.17 -8.12,9.73 -1.04,2.43 -3.26,10.27 -3.06,10.78 z"
         display="inline"
         fill="#2a1806"
         id="path303"
         stroke-width="0.26" />
      <path
         d="m 116.41,30.17 c 0.67,-0.64 -1.96,-1.09 -2,-0.96 -0.07,0.2 -0.18,3.07 -0.24,4.96 -0.09,2.3 -0.57,4.14 -0.94,5.56 -0.85,3.23 -2.48,6.38 -5.04,9.57 -1.94,2.43 -6.24,6.7 -9.09,8.91 -7.57,5.87 -14.32,12.22 -16.94,15.78 -3.35,4.56 -5.97,11.89 -5.82,16.18 l 0.07,2.01 1.57,-0.5 c 0.76,-0.09 1.89,0.81 3.06,0.59 7.63,-1.46 16.62,-4.64 22.38,-8.97 4.51,-3.39 9.81,-9.85 12.39,-14.99 2.13,-4.22 4.08,-9.28 4.73,-15 0.48,-4.18 -0.32,-15.62 -1.02,-18.26 -0.74,-2.75 -3.59,-4.43 -3.11,-4.88 z"
         display="inline"
         fill="#9c5916"
         id="path4-8"
         stroke-width="0.28" />
      <path
         d="m 52.65,28.48 c -1.68,0 -3.84,0.65 -4.74,1.42 -0.81,0.7 -1.15,1.52 -0.06,1.74 1.03,0.21 3.15,2.73 3.7,4.52 4.54,14.84 4.01,5.36 5.66,17.39 2.13,15.55 3.46,21.65 7.32,27.99 1.4,2.3 4.67,6.12 5.03,5.9 C 69.68,87.37 69.2,85.3 68.7,83.96 63.85,71.07 65.96,57.45 73.97,46.22 76.81,42.24 76.43,42.61 73.14,39.47 66.59,33.19 57.8,28.48 52.65,28.48 Z"
         display="inline"
         fill="#9c5916"
         id="path27"
         stroke-width="0.28" />
      <path
         d="m 76.19,2.5 c -1.11,0.07 -0.21,0 1.97,6.44 2.69,7.92 1.3,8.1 -1.24,15.63 -2.2,6.51 -1.07,5.41 -1.07,8.03 0.01,2.34 -0.03,3.91 1.09,5.64 l 1.84,2.84 3.67,-3.01 c 4.86,-3.98 9.04,-7.35 14.32,-9.38 2.73,-1.05 8.16,-0.58 5.71,-2.87 -0.96,-0.9 -4.53,-6.7 -6.34,-9.48 C 93.85,12.84 88.82,7.57 85.85,5.84 83.76,4.61 77.38,2.42 76.19,2.5 Z"
         display="inline"
         fill="#9c5916"
         id="path22"
         stroke-width="0.28" />
      <path
         d="m 77.48,91.95 c 2.66,1.88 7.73,-2.08 10.59,-3.19 33.21,-13.61 28.11,-48.84 27.46,-49.51 -0.07,-0.08 -1.49,-4.86 -1.26,-5.87 0.22,-1.01 -1.36,-3.94 0.43,-4.21 l 1.91,-0.3 1.27,2.62 c 1.53,3.15 1.82,5.18 1.81,12.23 -0.01,11.52 -2.27,20.3 -7.19,27.99 -3.06,4.78 -6.29,8.12 -11.05,11.42 -2.95,2.05 -8.79,5.04 -11.91,6.1 -4.25,0.93 -8.3,5.25 -12.06,2.72 z"
         fill="#8c4f13"
         id="path339"
         stroke-width="0.27" />
      <path
         d="M 64.75,82.8 C 62.99,80.69 61.2,77.57 59.93,74.4 57.75,68.95 56.7,64.25 55.28,53.63 53.64,41.37 52.66,36.99 50.88,33.88 49.84,32.05 45.71,33.34 45.5,31.52 l -0.28,-2.46 1.31,-0.59 c 3.02,-1.34 6.92,-1.53 11.9,0.88 4.58,2.21 12.03,6.42 15.31,10 0.66,0.72 3.65,4.33 3.16,3.89 C 76.46,42.86 70.19,38.95 68.37,37.75 61.55,33.27 57.8,32 56.77,34.01 c -0.97,1.9 1.94,21.08 3.66,30.63 0.21,1.2 2.72,12.69 3.45,12.66 0.15,1.45 3.12,6.91 3.32,8.96 -0.04,0.05 -1.74,-2.6 -2.45,-3.46 z"
         fill="#8c4f13"
         id="path1588"
         stroke-width="0.26" />
      <path
         d="m 76.64,37.16 c -0.6,-1.17 -0.37,-4.74 -0.37,-6.39 0,-2.13 0.53,-4.28 2.47,-10.05 0.95,-2.84 0.97,-5.71 1.14,-6.72 0.42,-2.46 -2.29,-8.27 -3.09,-10.66 -0.36,-1.07 2.72,0.28 2.76,0.25 0.16,-0.17 3.33,1.09 4.9,1.95 4.98,2.73 10.24,7.38 13.5,13.98 1.5,3.02 2.11,4.94 0.94,2.89 -1.04,-1.82 -5.56,-6.33 -8.15,-8.9 -3.4,-3.38 -5.81,-4.59 -6.92,-3.49 -0.23,0.23 -0.41,0.44 -0.41,0.47 0,0.02 -0.24,1.89 -0.53,4.14 -0.55,4.34 -1.62,8.57 -2.97,11.72 -0.45,1.05 -1.04,2.63 -1.32,3.5 -0.53,1.67 -0.65,6.62 -0.59,7.01 0.9,10.78 1.87,6.5 -1.36,0.3 z"
         fill="#8c4f13"
         id="path1611"
         stroke-width="0.26" />
      <path
         d="m 152.33,120.68 c -1.83,-0.51 -3.95,-2.25 -3.95,-3.24 0,-0.18 0.56,-0.65 1.24,-1.03 1.07,-0.6 1.27,-0.64 1.47,-0.28 0.39,0.7 1.71,1.2 3.21,1.2 1.61,0 2.28,-0.43 2.28,-1.47 0,-0.73 -0.58,-1.08 -3.17,-1.94 -3.33,-1.09 -4.5,-2.3 -4.5,-4.64 0,-4.67 6.18,-6.44 9.46,-2.71 0.47,0.54 0.86,1.07 0.86,1.17 0,0.11 -0.59,0.52 -1.31,0.93 l -1.3,0.73 -0.67,-0.67 c -0.53,-0.53 -0.93,-0.66 -1.95,-0.66 -1.4,0 -1.92,0.32 -1.92,1.21 0,0.78 0.41,1.07 2.67,1.84 3.59,1.22 5,2.62 5,4.96 0,0.7 -0.16,1.59 -0.37,1.99 -1.15,2.22 -4.3,3.38 -7.05,2.61 z M 1.53,112.7 v -8.07 h 3.82 c 2.1,0 4.16,0.12 4.57,0.28 2.32,0.88 3.58,3.88 2.61,6.2 -0.36,0.86 -0.34,0.99 0.26,2.05 1.18,2.07 0.77,4.93 -0.91,6.35 -1.23,1.03 -2.38,1.25 -6.58,1.25 l -3.77,0.01 z m 8.73,4.11 c 0.39,-0.73 0.34,-2.01 -0.1,-2.37 -0.24,-0.2 -1.25,-0.28 -2.84,-0.23 l -2.48,0.07 -0.08,1.16 c -0.13,1.87 -0.11,1.89 2.71,1.89 2.21,0 2.55,-0.07 2.79,-0.52 z m -0.67,-6.25 c 0.51,-0.52 0.54,-1.8 0.04,-2.21 -0.24,-0.19 -1.18,-0.28 -2.58,-0.23 l -2.21,0.08 -0.08,1.02 c -0.14,1.68 -0.04,1.76 2.3,1.76 1.57,0 2.22,-0.11 2.53,-0.42 z m 6.23,2.14 v -8.07 H 17.41 19 v 8.07 8.07 h -1.59 -1.59 z m 7.15,-0.02 v -8.08 l 1.61,0.08 1.62,0.08 2.46,3.83 c 2.75,4.29 2.96,4.58 3.32,4.36 0.14,-0.09 0.25,-1.97 0.25,-4.24 v -4.08 h 1.58 1.59 v 8.07 8.07 l -1.26,-0.01 h -1.25 l -2.93,-4.56 c -1.6,-2.51 -3.12,-4.6 -3.37,-4.65 -0.41,-0.08 -0.45,0.33 -0.45,4.57 v 4.65 h -1.59 -1.58 z m 14.55,7.89 c 0,-0.11 1.3,-3.71 2.88,-8.01 l 2.87,-7.8 h 1.79 1.78 l 2.88,7.79 c 1.58,4.29 2.88,7.89 2.88,8.01 0,0.11 -0.75,0.21 -1.67,0.21 h -1.66 l -0.5,-1.46 -0.49,-1.46 h -3.22 -3.22 l -0.5,1.46 -0.49,1.46 h -1.67 c -0.91,0 -1.66,-0.09 -1.66,-0.2 z m 9.25,-6.49 c -0.01,-0.79 -1.29,-3.77 -1.65,-3.85 -0.28,-0.05 -0.61,0.48 -1.09,1.73 -0.38,0.99 -0.69,1.95 -0.69,2.13 0,0.22 0.53,0.33 1.72,0.33 1.2,0 1.72,-0.1 1.71,-0.34 z m 7.95,-1.4 v -8.09 l 3.9,0.08 c 4.51,0.1 5.48,0.43 6.79,2.29 1.5,2.12 1.07,5.87 -0.8,7.1 -0.35,0.23 -0.63,0.53 -0.63,0.66 0,0.13 0.71,1.5 1.58,3.05 0.88,1.54 1.59,2.84 1.59,2.9 0,0.05 -0.82,0.1 -1.82,0.1 h -1.82 l -1.44,-2.58 -1.44,-2.58 -1.37,-0.08 -1.37,-0.08 v 2.66 2.65 H 56.3 54.72 Z m 8.08,-1.3 c 0.79,-0.79 0.83,-1.69 0.1,-2.62 -0.52,-0.65 -0.69,-0.69 -2.78,-0.69 h -2.23 v 1.98 1.98 h 2.13 c 1.91,0 2.2,-0.06 2.78,-0.65 z m 9.64,6.59 v -2.8 l -2.78,-5.11 c -1.52,-2.82 -2.77,-5.19 -2.77,-5.28 0,-0.08 0.8,-0.15 1.79,-0.15 h 1.79 l 1.66,3.04 c 0.92,1.67 1.83,3.04 2.03,3.04 0.2,0 1.09,-1.37 1.99,-3.04 l 1.62,-3.04 h 1.86 c 1.63,0 1.84,0.05 1.7,0.44 -0.1,0.24 -1.36,2.62 -2.81,5.29 l -2.64,4.84 v 2.78 2.79 h -1.72 -1.72 z m 17.47,-5.25 v -8.09 h 3.9 c 3.55,0 3.99,0.06 4.95,0.6 2.09,1.18 2.93,3.44 2.12,5.69 l -0.45,1.26 0.69,1.02 c 1.41,2.08 0.71,5.26 -1.48,6.7 -1.06,0.71 -1.21,0.73 -5.41,0.82 l -4.32,0.09 z m 8.72,3.75 c 0.36,-0.66 0.36,-0.81 0,-1.46 -0.4,-0.71 -0.48,-0.73 -2.98,-0.8 l -2.57,-0.08 v 1.61 1.6 l 2.57,-0.07 c 2.5,-0.07 2.58,-0.1 2.98,-0.8 z m -0.93,-5.85 c 0.52,-0.38 0.65,-1.89 0.2,-2.34 -0.13,-0.13 -1.24,-0.2 -2.46,-0.16 l -2.23,0.08 -0.08,1.02 c -0.14,1.66 -0.02,1.76 2.14,1.76 1.21,0 2.13,-0.14 2.43,-0.36 z m 6.49,2.08 v -8.07 h 4.77 4.76 v 1.71 1.71 l -3.11,0.07 -3.11,0.08 v 1.19 1.19 l 2.78,0.13 2.78,0.13 0.08,1.65 0.07,1.64 -2.85,0.08 -2.86,0.07 v 1.46 1.45 l 3.11,0.08 3.11,0.07 v 1.71 1.71 h -4.76 -4.77 z m 11.66,7.73 c 0.01,-0.18 1.29,-3.78 2.85,-8 l 2.83,-7.67 1.76,-0.08 1.76,-0.08 0.57,1.54 c 1.55,4.11 5.3,14.38 5.3,14.49 0,0.08 -0.76,0.14 -1.68,0.14 h -1.68 l -0.49,-1.46 -0.5,-1.46 h -3.24 -3.23 l -0.46,1.46 -0.46,1.46 h -1.67 c -1.17,0 -1.67,-0.1 -1.66,-0.34 z m 9.13,-6.69 c -0.47,-1.87 -1.28,-3.58 -1.66,-3.51 -0.38,0.08 -1.66,3.03 -1.66,3.82 0,0.27 0.43,0.37 1.74,0.37 1.74,0 1.75,-0.01 1.58,-0.68 z m 8.05,-1.04 v -8.07 h 1.6 c 1.83,0 1.5,-0.35 5.1,5.29 1.07,1.67 2.11,3.04 2.32,3.04 0.3,0 0.39,-0.79 0.45,-4.18 l 0.07,-4.18 1.52,0.08 1.51,0.08 0.07,8 0.07,8 h -1.31 -1.3 l -2.98,-4.64 c -2.04,-3.16 -3.11,-4.61 -3.4,-4.56 -0.35,0.07 -0.42,0.76 -0.48,4.64 l -0.08,4.56 h -1.58 -1.58 z M 68.91,94.3 C 63.34,93.42 57.21,90.76 53.07,87.41 44.55,80.53 39.37,69.59 38.31,56.21 c -0.57,-7.12 0.62,-16.28 2.9,-22.29 0.75,-1.98 2.42,-4.45 3.79,-5.63 2.52,-2.16 6.14,-3.13 9.62,-2.59 1,0.15 1.91,0.19 2.03,0.09 0.11,-0.11 0.44,-1.34 0.73,-2.73 1.68,-8.25 5.18,-14.78 9.83,-18.36 3.22,-2.47 6.43,-3.42 10.86,-3.19 9.32,0.48 18.77,8.68 23.92,20.75 0.67,1.57 1.25,2.89 1.28,2.94 0.04,0.04 1.33,-0.07 2.88,-0.25 6.63,-0.77 11.58,1.53 14.01,6.5 1.52,3.12 2.07,6.07 2.22,12.06 0.15,6.28 -0.28,10.74 -1.53,15.88 -4.41,18.07 -18.2,30.39 -38.49,34.4 -3.27,0.64 -10.78,0.93 -13.45,0.51 z m 12.66,-3.61 c 7.64,-1.46 15.6,-4.9 21.36,-9.23 4.51,-3.38 9.04,-8.83 11.63,-13.96 2.12,-4.23 3.81,-10.31 4.47,-16.03 0.47,-4.18 0.19,-12.55 -0.51,-15.19 -0.84,-3.14 -2.97,-6.8 -3.32,-5.71 -0.07,0.2 -0.18,1.92 -0.25,3.81 -0.08,2.3 -0.31,4.14 -0.68,5.55 -0.85,3.24 -2.86,7.03 -5.42,10.22 -1.94,2.43 -6.37,6.7 -9.22,8.91 -7.57,5.86 -14.45,12.22 -17.06,15.78 -3.36,4.56 -5.89,11.24 -5.89,15.54 v 1.03 l 1.39,-0.16 c 0.76,-0.09 2.34,-0.34 3.5,-0.56 z m -14.15,-0.3 c 0,-0.11 -0.61,-0.8 -1.35,-1.52 C 61.5,84.39 57.93,77.04 55.95,67.98 55.29,65 54.54,60.26 53.53,52.77 52.1,42.15 51.11,38.66 48.82,36.18 c -0.74,-0.81 -1.46,-1.26 -2.49,-1.59 -1.71,-0.54 -1.64,-0.6 -2.58,2.35 -1.62,5.04 -2.39,11.06 -2.18,17 0.18,4.99 0.62,7.87 1.89,12.28 1.8,6.27 4.82,11.56 9.12,16 3.6,3.72 7.57,6.22 12.32,7.76 2.02,0.65 2.52,0.73 2.52,0.41 z m 1.15,-6.17 c -4.86,-12.89 -3.02,-26.95 5,-38.17 2.84,-3.99 2.88,-3.23 -0.41,-6.38 C 66.61,33.4 57.82,28.69 52.67,28.69 c -1.68,0 -3.84,0.65 -4.74,1.42 -0.81,0.7 -0.69,1.09 0.39,1.31 1.03,0.21 2.89,1.66 4.02,3.16 2.14,2.84 3.24,7.15 4.89,19.18 2.13,15.55 3.73,21.42 7.6,27.76 1.39,2.3 4.08,5.47 4.43,5.25 0.12,-0.07 -0.19,-1.22 -0.69,-2.55 z m 5.19,1.08 c 0.01,-0.74 1.36,-4.6 2.4,-6.81 2.61,-5.6 7.64,-11.13 17.19,-18.88 7.62,-6.18 9.79,-8.13 12.02,-10.81 4.63,-5.56 6.43,-10.55 6.18,-17.13 -0.06,-1.63 -0.2,-3.05 -0.3,-3.16 -0.36,-0.36 -3.36,-0.41 -5.53,-0.09 -4.99,0.72 -12.12,3.78 -17.12,7.35 -3.27,2.33 -8.58,7.47 -10.88,10.53 -5.73,7.63 -8.27,14.76 -8.29,23.27 -0.01,4.47 0.3,6.64 1.57,10.85 1.17,3.87 2.19,6.18 2.52,5.67 0.13,-0.21 0.24,-0.56 0.24,-0.79 z m 7.25,-47.82 c 4.02,-3.85 10.58,-8.13 15.26,-9.96 1.08,-0.43 2.37,-0.93 2.85,-1.12 1.07,-0.42 1.07,-0.4 -0.91,-4.57 C 94.99,15.06 90.35,9.77 85.11,6.89 83.57,6.04 78.61,3.85 78.03,3.85 c -0.38,0 1.03,3.86 1.73,5.82 1.49,4.13 1.91,5.7 -0.73,13.23 -2.74,7.87 -2.98,10.63 -1.28,15.17 0.3,0.81 0.68,1.47 0.84,1.47 0.15,0 1.24,-0.93 2.42,-2.06 z m -7.37,-9.43 c 0.25,-1.01 1.09,-3.64 1.86,-5.85 2.76,-7.9 2.88,-10.88 0.64,-15.7 -0.89,-1.9 -0.79,-1.88 -3.7,-0.81 -5.23,1.93 -9.33,7.98 -11.53,17.05 -0.99,4.11 -1.08,3.87 2,5.42 2.63,1.32 6.88,4.05 8.87,5.71 l 1.06,0.88 0.17,-2.43 c 0.09,-1.34 0.37,-3.26 0.63,-4.27 z"
         display="inline"
         fill="#1a0e03"
         id="path1"
         stroke-width="0.26" />
    </g>
  </g>
</svg>
